<svg xmlns="http://www.w3.org/2000/svg" width="60" height="80" stroke="none" stroke-linecap="round" stroke-linejoin="round" fill="#fff" fill-rule="evenodd"><path d="M60 15H0l5 57.5L30 80l25-7.5L60 15" fill="#1572b6"/><path d="M51.7391 52.5l.4348-5 .6522-7.5.6522-7.5.6521-7.5.4348-5H30v55l15.1786-4.5536 5.1339-1.5401.6696-7.7009.6697-7.7009z" fill="#33a9dc"/><path d="M22 0h-9v11h9V8h-6V3h6zm13 0v3h-5l5 5v3H25V8h5l-5-5V0zm13 0v3h-5l5 5v3H38V8h5l-5-5V0z" fill="#000"/><path d="M24.9331 65.9799l-2.5669-.7701-8.2143-2.4643-.6697-7.7009L13.261 52.5h8l.4355 5.0089 2.567.7701L30.0001 60v7.5zM11.5217 32.5h8 2.5H30V25h-8.6304-2.5-8z" fill="#ebebeb"/><path d="M30 60l8.3036-2.4911.4355-5.0089.4348-5H30V40h9.8261l.6522-7.5H30V25h11.1304 8l-.6521 7.5-.6522 7.5-.6522 7.5-.4348 5-.2212 2.5446-.6697 7.7009-8.2143 2.4643L30 67.5V60z"/><path d="M30.0001 47.5h-6.6739L22.674 40h7.3261z" fill="#ebebeb"/></svg>