<svg xmlns="http://www.w3.org/2000/svg" width="60" height="76" stroke="#000" stroke-linecap="round" stroke-linejoin="round" fill="#fff" fill-rule="evenodd"><defs><filter id="A" x="-27.5%" y="-32.5%" width="160%" height="160%"><feGaussianBlur in="SourceAlpha" stdDeviation="2"/><feOffset dx="1" dy="-1" result="B"/><feFlood flood-color="#000" flood-opacity=".1997"/><feComposite in2="B" operator="in" result="C"/><feMerge><feMergeNode in="C"/><feMergeNode in="SourceGraphic"/></feMerge></filter><filter id="B" x="-6%" y="-4.6875%" width="116%" height="112.5%"><feGaussianBlur in="SourceAlpha" stdDeviation="1"/><feOffset dx="2" dy="2" result="B"/><feFlood flood-color="#000" flood-opacity=".1997"/><feComposite in2="B" operator="in" result="C"/><feMerge><feMergeNode in="C"/><feMergeNode in="SourceGraphic"/></feMerge></filter></defs><g transform="translate(3 6.5)"><g stroke="none"><path d="M20 20L0 0h15c2.77 0 5 2.23 5 5z" fill="#ffe082" filter="url(#A)" transform="matrix(-1 0 0 -1 50 20)"/><path d="M50 20L30 0H5C2.23 0 0 2.23 0 5v54c0 2.77 2.23 5 5 5h40c2.77 0 5-2.23 5-5z" fill="#ffca28" filter="url(#B)"/></g><g transform="matrix(-1 0 0 -1 50 20)"><path d="M20 20L0 0h15c2.77 0 5 2.23 5 5z" fill="#ffeb3b" stroke="none" filter="url(#A)"/><path d="M20 20L0 0h15c2.77 0 5 2.23 5 5z" fill="#ffd54f" stroke="none" filter="url(#A)"/></g><path d="M19.0387 43.9471V32.7227h3.3406v11.2244q0 1.5478-.6848 2.7338-.6848 1.1859-1.932 1.8317-1.2471.6459-2.8172.6459-2.5723 0-4.0087-1.3084-1.4365-1.3084-1.4365-3.7025h3.3629q0 1.1915.5011 1.7594.5011.5679 1.5812.5679.9576 0 1.5255-.657.5679-.657.5679-1.8708zm14.6096.735q0-.9465-.6681-1.4532-.6681-.5066-2.4052-1.069-1.7371-.5623-2.7504-1.108-2.7616-1.4921-2.7616-4.0198 0-1.314.7405-2.344.7405-1.03 2.1268-1.6091 1.3864-.579 3.1124-.579 1.7371 0 3.0956.6291 1.3585.6292 2.1101 1.7761.7517 1.147.7517 2.6057h-3.3406q0-1.1135-.7015-1.7315-.7016-.6181-1.971-.6181-1.2249 0-1.9041.5178-.6793.5178-.6793 1.3641 0 .7906.7962 1.3251.7962.5345 2.344 1.0022 2.8506.8574 4.1534 2.1269 1.3029 1.2694 1.3029 3.1624 0 2.1046-1.5924 3.3016-1.5923 1.1971-4.2871 1.1971-1.8707 0-3.4074-.6848-1.5367-.6849-2.344-1.8763-.8073-1.1915-.8073-2.7616h3.3517q0 2.6836 3.207 2.6836 1.1915 0 1.8596-.4844.6681-.4844.6681-1.3529z" fill="#000" stroke="none"/></g></svg>