<svg xmlns="http://www.w3.org/2000/svg" width="80" height="80" stroke="#000" stroke-linecap="round" stroke-linejoin="round" fill="#fff" fill-rule="evenodd"><path d="M40 0C17.9173 0 0 17.9173 0 40c0 22.112 17.9173 40 40 40s40-17.888 40-40C80 17.9173 62.0827 0 40 0zm10.5762 74.7253v-6.8321c0-2.6373-1.4375-4.9733-3.6563-6.4427.1494-.0293.3308-.0586.5095-.0586 3.8053-.4798 7.2506-1.6771 7.2506-1.6771s4.944-1.528 7.6107-4.6458c2.8161-3.2956 3.5361-8.1784 3.5361-8.1784s.9278-5.3333 0-9.4694c-.928-4.0449-3.8961-6.8613-3.8961-6.8613s1.0185-2.6374.928-5.3945c-.0908-2.6374-1.3174-5.392-1.3174-5.392s-2.3359-.2109-4.8239.7494c-3.0266 1.168-6.3229 3.5358-6.3229 3.5358s-2.3066-.7494-5.0026-1.1094C42.9066 22.5918 40 22.5625 40 22.5625s-2.9066.0293-5.3919.3893c-2.696.36-5.0026 1.1094-5.0026 1.1094s-3.2696-2.3678-6.3256-3.5358c-2.456-.9603-4.8238-.7494-4.8238-.7494s-1.1976 2.7546-1.2881 5.392c-.0905 2.7571.928 5.3945.928 5.3945s-2.9974 2.8164-3.8961 6.8613c-.96 4.1361 0 9.4694 0 9.4694s.72 4.8828 3.5068 8.1791c2.6667 3.1172 7.64 4.6451 7.64 4.6451s3.416 1.1973 7.2213 1.6771c.1787 0 .3601.0293.5388.0586-2.2162 1.4694-3.6856 3.8054-3.6856 6.4427v6.8321C14.5306 70.2025 3.7148 56.36 3.7148 40.0026 3.7148 19.957 19.9548 3.7174 40 3.7174S76.3148 19.9544 76.3148 40c0 16.36-10.8454 30.2025-25.7386 34.7253z" fill="#1e1e1e" stroke="none"/></svg>