<svg width="288" height="96" viewBox="0 0 288 96" fill="none" xmlns="http://www.w3.org/2000/svg">
  <path d="M70.24 33.92C70.24 17.44 57.2 4.8 41.12 4.8C25.04 4.8 12 17.44 12 33.92C12 50.4 25.04 63.04 41.12 63.04C45.84 63.04 50.32 61.92 54.24 60L60.24 66.32L69.44 58.16L63.84 52.24C67.84 47.28 70.24 40.96 70.24 33.92ZM41.12 50.56C32 50.56 24.8 43.92 24.8 33.92C24.8 23.92 32 17.28 41.12 17.28C50.24 17.28 57.44 23.92 57.44 33.92C57.44 37.36 56.56 40.4 55.12 42.96L46.16 33.44L36.96 41.6L45.04 50.16C43.76 50.4 42.48 50.56 41.12 50.56Z" fill="#4643D3"/>
  <path d="M102.868 21.92V43.76C102.868 49.44 99.8281 52 95.4281 52C91.5881 52 88.4681 49.68 88.4681 44.72V21.92H76.4681V46.48C76.4681 57.28 83.3481 63.04 91.4281 63.04C96.7081 63.04 100.708 61.12 102.868 58.16V61.92H114.868V21.92H102.868Z" fill="#4643D3"/>
  <path d="M128.869 18.4C132.789 18.4 136.069 15.12 136.069 11.2C136.069 7.28 132.789 4 128.869 4C124.949 4 121.669 7.28 121.669 11.2C121.669 15.12 124.949 18.4 128.869 18.4ZM122.869 61.92H134.869V21.92H122.869V61.92Z" fill="#4643D3"/>
  <path d="M153.57 46.72H181.97C182.29 45.2 182.45 43.6 182.45 41.92C182.45 29.84 173.81 20.8 162.13 20.8C149.49 20.8 140.85 30 140.85 41.92C140.85 53.84 149.33 63.04 163.01 63.04C170.61 63.04 176.53 60.24 180.45 54.8L170.85 49.28C169.25 51.04 166.45 52.32 163.17 52.32C158.77 52.32 155.09 50.88 153.57 46.72ZM153.33 37.76C154.45 33.68 157.49 31.44 162.05 31.44C165.65 31.44 169.25 33.12 170.53 37.76H153.33Z" fill="#4643D3"/>
  <path d="M211.896 20.8C206.616 20.8 202.616 22.72 200.456 25.68V21.92H188.456V61.92H200.456V40.08C200.456 34.4 203.496 31.84 207.896 31.84C211.736 31.84 214.856 34.16 214.856 39.12V61.92H226.856V37.36C226.856 26.56 219.976 20.8 211.896 20.8Z" fill="#4643D3"/>
  <path d="M263.337 21.92V25.68C260.697 22.64 256.777 20.8 251.417 20.8C240.937 20.8 232.297 30 232.297 41.92C232.297 53.84 240.937 63.04 251.417 63.04C256.777 63.04 260.697 61.2 263.337 58.16V61.92H275.337V21.92H263.337ZM253.817 51.68C248.297 51.68 244.297 47.92 244.297 41.92C244.297 35.92 248.297 32.16 253.817 32.16C259.337 32.16 263.337 35.92 263.337 41.92C263.337 47.92 259.337 51.68 253.817 51.68Z" fill="#4643D3"/>
  <path d="M27.5 89.9999H29.78V76.0999H27.5V89.9999Z" fill="#4643D3"/>
  <path d="M53.5134 76.0799V86.4399L46.6534 76.0799H44.3734V89.9999H46.6534V79.6199L53.5134 89.9999H55.7934V76.0799H53.5134Z" fill="#4643D3"/>
  <path d="M75.8275 87.6599L71.7075 76.0999H69.2675L74.5075 89.9999H77.1475L82.3675 76.0999H79.9675L75.8275 87.6599Z" fill="#4643D3"/>
  <path d="M103.554 76.0799H95.8742V89.9999H103.554V88.1399H98.1542V83.8799H102.954V82.0199H98.1542V77.9399H103.554V76.0799Z" fill="#4643D3"/>
  <path d="M125.342 80.2599C125.342 81.6399 124.543 82.6199 122.763 82.6199H120.243V77.9599H122.763C124.543 77.9599 125.342 78.8599 125.342 80.2599ZM117.963 76.0999V89.9999H120.243V84.4399H121.982L125.183 89.9999H127.903L124.463 84.2399C126.803 83.6599 127.683 81.8999 127.683 80.2599C127.683 77.9999 126.063 76.0999 122.763 76.0999H117.963Z" fill="#4643D3"/>
  <path d="M151.579 86.0599C151.579 80.9799 144.219 82.9399 144.219 79.7999C144.219 78.4599 145.239 77.8199 146.559 77.8599C147.999 77.8999 148.819 78.7599 148.899 79.6999H151.419C151.219 77.3199 149.339 75.9199 146.679 75.9199C143.839 75.9199 141.899 77.4399 141.899 79.8799C141.899 84.9999 149.279 82.8199 149.279 86.1799C149.279 87.3599 148.379 88.2199 146.779 88.2199C145.199 88.2199 144.399 87.2999 144.299 86.1599H141.859C141.859 88.6199 143.999 90.1399 146.779 90.1399C149.879 90.1399 151.579 88.1399 151.579 86.0599Z" fill="#4643D3"/>
  <path d="M165.87 89.9999H168.15V76.0999H165.87V89.9999Z" fill="#4643D3"/>
  <path d="M196.183 83.0199C196.183 78.8599 193.043 75.9199 189.083 75.9199C185.163 75.9199 181.983 78.8599 181.983 83.0199C181.983 87.1999 185.163 90.1399 189.083 90.1399C193.043 90.1399 196.183 87.1999 196.183 83.0199ZM184.323 83.0199C184.323 79.8799 186.323 77.9199 189.083 77.9199C191.843 77.9199 193.843 79.8799 193.843 83.0199C193.843 86.1599 191.843 88.1599 189.083 88.1599C186.323 88.1599 184.323 86.1599 184.323 83.0199Z" fill="#4643D3"/>
  <path d="M219.167 76.0799V86.4399L212.307 76.0799H210.027V89.9999H212.307V79.6199L219.167 89.9999H221.447V76.0799H219.167Z" fill="#4643D3"/>
  <path d="M243.721 76.0799H236.041V89.9999H243.721V88.1399H238.321V83.8799H243.121V82.0199H238.321V77.9399H243.721V76.0799Z" fill="#4643D3"/>
  <path d="M267.509 86.0599C267.509 80.9799 260.149 82.9399 260.149 79.7999C260.149 78.4599 261.169 77.8199 262.489 77.8599C263.929 77.8999 264.749 78.7599 264.829 79.6999H267.349C267.149 77.3199 265.269 75.9199 262.609 75.9199C259.769 75.9199 257.829 77.4399 257.829 79.8799C257.829 84.9999 265.209 82.8199 265.209 86.1799C265.209 87.3599 264.309 88.2199 262.709 88.2199C261.129 88.2199 260.329 87.2999 260.229 86.1599H257.789C257.789 88.6199 259.929 90.1399 262.709 90.1399C265.809 90.1399 267.509 88.1399 267.509 86.0599Z" fill="#4643D3"/>
</svg>
