<svg xmlns="http://www.w3.org/2000/svg" width="80" height="80" stroke="none" stroke-linecap="round" stroke-linejoin="round" fill="#fff" fill-rule="evenodd"><path fill="#222" d="M0 0h80v80H0z"/><g fill="#00d8ff"><circle cx="39.9372" cy="39.9504" r="6.6889"/><path d="M2.6667 40c0-8.4946 16.6507-15.3333 37.3333-15.3333S77.3334 31.5054 77.3334 40 60.6827 55.3334 40 55.3334 2.6667 48.4947 2.6667 40zM6 40c0-6.648 15.164-12 34-12s34 5.352 34 12-15.164 12-34 12S6 46.648 6 40z"/><path d="M21.3338 7.6699c7.3565-4.2473 21.6044 6.7533 31.9457 24.6649s12.7442 35.751 5.3877 39.9983-21.6045-6.7532-31.9458-24.665-12.7442-35.7509-5.3875-39.9983zm1.6667 2.8867c5.7573-3.324 17.9743 7.1324 27.3923 23.4449s12.365 32.1209 6.6077 35.4449-17.9743-7.1324-27.3923-23.4449-12.365-32.1209-6.6077-35.4449z"/><path d="M58.6672 7.67c7.3565 4.2473 4.9537 22.0866-5.3876 39.9982s-24.5892 28.9123-31.9457 24.665-4.9538-22.0866 5.3876-39.9984S51.3106 3.4226 58.6672 7.67zm-1.6666 2.8867c5.7573 3.324 2.8103 19.1324-6.6077 35.4449s-21.635 26.7689-27.3923 23.4449-2.8103-19.1324 6.6077-35.4449 21.635-26.7689 27.3923-23.4449z"/></g></svg>