<svg xmlns="http://www.w3.org/2000/svg" width="37" height="81" stroke="none" stroke-linecap="round" stroke-linejoin="round" fill="#fff" fill-rule="nonzero"><path d="M17.7492.2189L19.888 4.236c.4648.7257 1.0064 1.399 1.6154 2.0086 1.7906 1.7907 3.4913 3.6665 5.0189 5.6751 3.624 4.7584 6.0682 10.0178 7.8138 15.7579 1.0469 3.4912 1.6155 7.0726 1.658 10.694.1753 10.8267-3.5363 20.1233-11.0196 27.8495a31.792 31.792 0 0 1-3.932 3.3609c-.7413 0-1.0919-.5685-1.3973-1.0919-.5686-.9592-.9166-2.0537-1.092-3.1431-.2629-1.3098-.4359-2.6196-.3506-3.972v-.6111c-.0602-.1553-.7137-60.262-.4534-60.545z" fill="#599636"/><path d="M17.7492.0862c-.0877-.1754-.1753-.0426-.263.0425.0426.8766-.263 1.658-.7413 2.4043-.501.7413-1.2222 1.3098-1.9209 1.9209-3.8819 3.361-6.9373 7.4207-9.3842 11.9612C2.1841 22.526.5061 29.0751.0302 35.9699c-.2178 2.4869.7864 11.2625 1.5703 13.7944 2.1387 6.722 5.9806 12.3545 10.957 17.2432 1.222 1.177 2.5044 2.269 3.8819 3.3183.3932 0 .4356-.3506.5008-.611a11.97 11.97 0 0 0 .3932-1.7031l.8766-6.5466L17.7492.0862z" fill="#6cac48"/><path d="M19.888 72.2417c.0877-1.0018.5685-1.8332 1.092-2.6622-.5009-.2179-.9167-.6512-1.2222-1.1345-.263-.4358-.4809-.9592-.6512-1.4401-.6111-1.8332-.7413-3.7567-.9166-5.63v-1.1345c-.2179.1753-.263 1.6579-.263 1.8783a43.497 43.497 0 0 1-.7864 5.893c-.1302.7864-.2178 1.5703-.7012 2.269 0 .0877 0 .1753.0426.3056.7864 2.3141 1.0018 4.6708 1.1345 7.0725v.8766c0 1.0468-.0426.8264.8265 1.1771.3506.1302.7413.1753 1.0919.4357.263 0 .3055-.2178.3055-.3932l-.1302-1.44v-4.0171c-.0426-.7013.0877-1.3975.1753-2.0537z" fill="#c2bfbf"/></svg>