<svg xmlns="http://www.w3.org/2000/svg" width="71" height="81" stroke="none" stroke-linecap="round" stroke-linejoin="round" fill="#8cc84b" fill-rule="evenodd"><path d="M31.8418.8535c1.9127-1.1354 4.4039-1.1406 6.3149 0l28.8442 16.8968c1.808 1.0562 3.0174 3.1429 2.9989 5.3035v33.8967c.0136 2.25-1.3153 4.3867-3.2228 5.419L38.0356 79.1853c-1.9522 1.1577-4.4935 1.0685-6.3848-.184l-8.6238-5.1714c-.5872-.363-1.2489-.6519-1.6635-1.2423.3665-.5122 1.0217-.5761 1.5541-.7997 1.1993-.3955 2.3006-1.0303 3.4023-1.6463.2786-.1978.6187-.122.8857.055l7.3565 4.4109c.5258.3148 1.0583-.1032 1.5078-.363l28.2205-16.5164c.3484-.1738.5409-.5573.5126-.9531l.0033-33.5474c.0399-.449-.2107-.8619-.6022-1.0456L35.5625 5.4399c-.3386-.2414-.7855-.2421-1.1248-.0017L5.7993 22.1868c-.3901.1841-.6519.5901-.6054 1.0408v33.5491c-.034.3955.1732.771.5192.9411l7.6486 4.4796c1.4362.8017 3.1997 1.2781 4.7822.6638 1.3964-.5194 2.3753-1.9973 2.3487-3.535l.0098-33.3496c-.0348-.4935.4166-.9013.8792-.8548l3.6742.0034c.5111-.012.8627.5194.7996 1.0166l-.0083 33.5611c.0032 2.9814-1.1778 6.2255-3.8369 7.6843-3.2759 1.76-7.3249 1.3868-10.5612-.3008-2.8018-1.4503-5.4755-3.1618-8.2275-4.7155-1.9124-1.0266-3.2347-3.1718-3.2213-5.4201v-33.897c-.02-2.2053 1.2374-4.33 3.1018-5.3708L31.8418.8535zm8.3585 23.4805c4.1787-.279 8.6521-.1653 12.4124 1.9697 2.9114 1.636 4.5254 5.0696 4.5768 8.424-.0813.4524-.5374.702-.9539.671-1.2124-.0017-2.425.0171-3.6374-.0086-.5144.0205-.8133-.4712-.8778-.9428-.3484-1.6049-1.1924-3.1945-2.649-3.9687-2.236-1.161-4.8286-1.1026-7.267-1.0784-1.7799.098-3.6939.2579-5.202 1.3434-1.1577.8223-1.5094 2.4823-1.0961 3.8191.3894.9599 1.4579 1.2696 2.3322 1.5551 5.0357 1.3659 10.3721 1.23 15.3118 3.0276 2.0452.7328 4.0458 2.1574 4.7458 4.3781.9156 2.9763.5143 6.5339-1.5275 8.9233-1.6559 1.9662-4.0674 3.0364-6.4727 3.6176-3.1999.74-6.5206.7588-9.77.4302-3.0556-.3612-6.2353-1.1938-8.5942-3.3529-2.0172-1.8164-3.0023-4.6465-2.9045-7.3781.0234-.4613.4662-.783.8924-.7451l3.6627.0017c.4876-.0361.8491.4009.8741.8776.2253 1.5292.7795 3.1342 2.0652 4.0408 2.4814 1.6602 5.595 1.5465 8.4362 1.593 2.3539-.1083 4.9963-.1411 6.9173-1.7546 1.0135-.9203 1.3137-2.46 1.0398-3.7846-.2967-1.1183-1.4248-1.6395-2.3935-1.9802-4.9713-1.6309-10.3672-1.0391-15.2904-2.8834-1.9987-.7326-3.9315-2.1176-4.6994-4.2471-1.0714-3.0139-.5805-6.7418 1.6754-9.0506 2.1994-2.2964 5.3745-3.1808 8.3933-3.4974z"/></svg>